<?xml version="1.0" encoding="utf-8"?>
<!-- Generator: Adobe Illustrator 21.1.0, SVG Export Plug-In . SVG Version: 6.00 Build 0)  -->
<svg version="1.1" id="aarsman" xmlns="http://www.w3.org/2000/svg" xmlns:xlink="http://www.w3.org/1999/xlink" x="0px" y="0px"
	 viewBox="0 0 1061.6 680.7" style="enable-background:new 0 0 1061.6 680.7;" xml:space="preserve">
<style type="text/css">
	.st0{fill:#FFFFFF;stroke:#FDFDFD;stroke-width:5;stroke-miterlimit:10;}
	.st1{display:none;fill:none;stroke:#FFFFFE;stroke-width:5;stroke-miterlimit:10;}
	.st2{display:none;fill:none;stroke:#FFFFFF;stroke-width:5;stroke-miterlimit:10;}
	.st3{display:none;fill:none;stroke:#FAFAFA;stroke-width:5;stroke-miterlimit:10;}
	.st4{display:none;fill:none;stroke:#FDFDFB;stroke-width:5;stroke-miterlimit:10;}
	.st5{fill:none;stroke:#FFFFFF;stroke-width:20;stroke-miterlimit:10;}
</style>
<g>
	<path class="st0" d="M43,132.4c20.9-1.9,35.9,0,45,5.8c4.7,3,8.7,6.7,12.2,10.9c3.4,4.3,6.1,8.9,8.1,14c1.9,5.1,3.4,10,4.4,14.9
		c1,4.8,1.8,10.2,2.4,16.1c0.1,1,0.4,3.8,0.9,8.5c0.5,4.7,0.8,8.1,0.9,10.1c0.1,2.1,0.2,4.9,0.1,8.5c-0.1,3.6-0.4,6.7-0.9,9.5
		c-1.8,8-5,15.2-9.5,21.7c-4.5,6.5-9.9,11.5-16.2,15.2c-6.3,3.6-13.2,6.1-21,7.4c-7.7,1.3-15.5,0.8-23.3-1.5c-1-0.3-1.3-0.9-1-1.9
		c0.1-0.6,0.5-0.9,1-1v-0.4c0-20.6-0.8-55.9-2.3-105.9c0-0.4,0.1-5.1,0.4-14c0.1-5.5-0.2-9.9-1-13.2c-0.1-0.8,0.1-1.4,0.8-1.7h-0.6
		c-1,0.1-1.5-0.3-1.7-1.2C41.6,133.1,42,132.5,43,132.4z M46.1,136.1c0.8,3.6,1.2,8.3,1,14.2c-0.3,8.8-0.4,13.4-0.4,13.8
		c1.5,50,2.3,85.3,2.3,105.9c0,0.4-0.1,0.7-0.4,0.8c14.9,3.6,28.6,1.4,41.1-6.4c12.5-7.8,20.4-19.3,23.5-34.3
		c0.5-2.8,0.9-5.9,0.9-9.3c0.1-3.4,0.1-6.1,0-8.1c-0.1-1.9-0.4-5.2-0.9-9.9c-0.6-4.7-0.9-7.5-1-8.5c-1.2-12.5-3.7-23.3-7.4-32.3
		c-3.7-9-9.8-16.2-18.4-21.6c-8.3-5.4-22-7.2-41.3-5.6C45.6,135.2,46,135.5,46.1,136.1z"/>
	<path class="st0" d="M206.5,135.3c-1.1,0.1-10.2,0.3-27.3,0.4c-7,0.1-12.3,0.3-15.9,0.4c-2.3,0.1-4.1,0.3-5.4,0.4
		c-0.6,0.1-1,0.3-1.4,0.4h-0.2l-0.6,1.2c-0.1,0.8-0.3,1.9-0.4,3.3c-0.3,2.2-0.5,5.1-0.6,8.7v6.6v5.4v3.5c0,4.5,0.4,10.2,1.2,16.9
		c1.5,10.7,2.3,16.3,2.3,16.7c4.8-0.3,18.4-0.4,40.7-0.4c1,0,1.4,0.5,1.4,1.4c0,1-0.5,1.4-1.4,1.4c-22.2,0-35.6,0.1-40.5,0.4
		c0.4,4.8,0.6,11.4,0.6,19.6c0,10.6,0.1,18,0.4,22.1v6.2c-0.1,6.2-0.2,9.4-0.2,9.7c-0.1,3.9-0.1,6.9,0,9.1c0,1.2,0.1,2.3,0.2,3.1
		c0,0.4,0.1,0.8,0.2,1c0.3,0,0.6,0.1,1,0.2c1.2,0.1,2.9,0.3,5,0.4c3.7,0.1,8.8,0.3,15.3,0.4h26c1,0,1.4,0.5,1.4,1.4
		c0,1-0.5,1.4-1.4,1.4h-26c-6.5-0.1-11.6-0.3-15.3-0.4c-2.2-0.1-3.9-0.3-5.2-0.4c-0.7-0.1-1.3-0.3-1.9-0.4c-0.3,0-0.5-0.1-0.6-0.2
		c-0.4-0.1-0.7-0.3-0.8-0.6c-0.3-0.6-0.5-1.4-0.6-2.5c-0.1-1-0.2-2.1-0.2-3.5c-0.1-2.2-0.1-5.3,0-9.3c0-0.3,0.1-3.4,0.2-9.5v-6.2
		c-0.3-4-0.4-11.4-0.4-22.1c0-8.3-0.2-14.7-0.6-19.4h-0.4c-0.8,0-1.3-0.4-1.3-1.3c-0.1-0.9,0.4-1.4,1.3-1.5h0.2
		c0-0.4-0.8-5.9-2.3-16.5c-0.8-6.9-1.2-12.7-1.2-17.3v-3.7v-5.6v-6.2c0.1-3.7,0.3-6.7,0.6-9.1c0.1-1.4,0.3-2.5,0.6-3.5
		c0.3-1.2,0.7-2.1,1.2-2.7c0.3-0.3,0.8-0.5,1.4-0.8c0.5-0.1,1.2-0.2,1.9-0.2c1.4-0.3,3.2-0.5,5.6-0.6c3.7-0.1,9.1-0.3,16.1-0.4
		c16.9-0.1,25.9-0.3,26.8-0.4c1-0.1,1.5,0.3,1.7,1.2C207.9,134.6,207.5,135.1,206.5,135.3z"/>
	<path class="st0" d="M360.7,235c-7.3,0.7-16.7,0.8-28.1,0.2c-15.8-0.6-25.1-0.8-27.7-0.8c-0.4,0-0.8-0.1-1-0.4
		c-5.4,16.1-8.9,29.4-10.7,39.8c-0.1,1-0.7,1.4-1.7,1.2c-1-0.1-1.4-0.7-1.2-1.7c1.2-7.6,3.1-15.5,5.6-23.7
		c2.5-8.3,5.4-17.2,8.7-26.9c3.3-9.7,5.8-17.4,7.4-23c0.5-1.9,1.9-7,4-15.3c2.1-8.3,3.9-14.8,5.3-19.6c2.2-8.3,4.1-14.9,5.8-19.8
		c2.2-6.2,3.9-10.2,5.2-12c0.7-0.8,1.4-0.9,2.2-0.3c0.8,0.6,0.9,1.3,0.3,2c-1.2,1.5-2.8,5.3-4.7,11.4c-1.5,4.4-3.4,10.9-5.8,19.4
		l-5.2,19.8c-2.2,8.3-3.6,13.4-4.1,15.3c-1.5,5.1-4.9,15.4-10.1,31h0.2c2.6,0,11.9,0.3,27.9,0.8c11.3,0.5,20.4,0.5,27.5-0.2h0.6
		c-1.7-7.6-3.6-15.8-5.8-24.8c-9.5-37.4-16.3-61-20.4-70.6c-0.4-1-0.2-1.6,0.7-2c0.9-0.3,1.5-0.1,1.8,0.7
		c4.3,9.8,11.1,33.5,20.6,71.2c4.3,17.1,7.6,31.4,9.9,43.1c1.2,6.3,2.1,11.5,2.5,15.5c0.5,4.5,0.6,7.6,0.2,9.1c-0.3,1-0.9,1.3-1.9,1
		c-1-0.3-1.3-0.9-1-1.9c0.4-1.2,0.3-3.9-0.2-7.8c-0.4-4-1.2-9.2-2.5-15.5l-3.3-15.7C361.3,234.8,361,235,360.7,235z"/>
	<path class="st0" d="M461.1,235c-7.3,0.7-16.7,0.8-28.1,0.2c-15.8-0.6-25.1-0.8-27.7-0.8c-0.4,0-0.8-0.1-1-0.4
		c-5.4,16.1-8.9,29.4-10.7,39.8c-0.1,1-0.7,1.4-1.7,1.2c-1-0.1-1.4-0.7-1.2-1.7c1.2-7.6,3.1-15.5,5.6-23.7
		c2.5-8.3,5.4-17.2,8.7-26.9c3.3-9.7,5.8-17.4,7.4-23c0.5-1.9,1.9-7,4-15.3c2.1-8.3,3.9-14.8,5.3-19.6c2.2-8.3,4.1-14.9,5.8-19.8
		c2.2-6.2,3.9-10.2,5.2-12c0.7-0.8,1.4-0.9,2.2-0.3c0.8,0.6,0.9,1.3,0.3,2c-1.2,1.5-2.8,5.3-4.7,11.4c-1.5,4.4-3.4,10.9-5.8,19.4
		l-5.2,19.8c-2.2,8.3-3.6,13.4-4.1,15.3c-1.5,5.1-4.9,15.4-10.1,31h0.2c2.6,0,11.9,0.3,27.9,0.8c11.3,0.5,20.4,0.5,27.5-0.2h0.6
		c-1.7-7.6-3.6-15.8-5.8-24.8c-9.5-37.4-16.3-61-20.4-70.6c-0.4-1-0.2-1.6,0.7-2c0.9-0.3,1.5-0.1,1.8,0.7
		c4.3,9.8,11.1,33.5,20.6,71.2c4.3,17.1,7.6,31.4,9.9,43.1c1.2,6.3,2.1,11.5,2.5,15.5c0.5,4.5,0.6,7.6,0.2,9.1c-0.3,1-0.9,1.3-1.9,1
		c-1-0.3-1.3-0.9-1-1.9c0.4-1.2,0.3-3.9-0.2-7.8c-0.4-4-1.2-9.2-2.5-15.5l-3.3-15.7C461.6,234.8,461.3,235,461.1,235z"/>
	<path class="st0" d="M509.2,273.4c-0.7-3-1.1-6.4-1.1-10.2c-0.1-3.8,0-8.1,0.3-12.8c0.3-4.7,0.4-8.1,0.4-10c0-8.1,0-20.3-0.1-36.6
		c-0.1-16.3-0.1-28.5-0.1-36.6c0-0.5,0-1.7-0.1-3.5c-0.1-1.8-0.2-4.1-0.3-6.8c-0.1-2.8-0.2-5.2-0.2-7.2c-0.1-4.5-0.2-8-0.2-10.3
		v-3.7c0.1-0.4,0.2-0.8,0.2-1c0.1-0.3,0.2-0.5,0.2-0.6c0.1-0.4,0.4-0.7,0.8-0.8c1.7-1,4.7-1.5,9.1-1.7c4-0.1,8.5,0,13.4,0.4
		c5,0.4,9.4,1,13.4,1.9c4.4,0.8,7.4,1.8,9.1,2.9c4.1,2.6,7.6,6.6,10.3,12.1c2.8,5.4,4.5,11.3,5.4,17.7c0.8,6.6,0.5,12.8-0.9,18.5
		c-1.4,5.7-4.2,10.2-8.4,13.3c-2.1,1.5-5.4,2.8-10.1,3.7c-3.6,0.8-7.8,1.4-12.6,1.7c6.7,12.3,11.8,22.2,15.1,29.9
		c1.2,2.8,2.5,6.1,3.9,10.1L560,254c2.8,8.3,5.7,14.5,8.9,18.8c0.5,0.7,0.4,1.3-0.3,2c-0.8,0.6-1.5,0.5-2.2-0.3
		c-3.3-4.4-6.4-10.9-9.3-19.6l-3.3-10.5c-1.2-3.9-2.4-7.1-3.5-9.7c-3.4-7.8-8.7-18.2-15.9-31c-9.2,0.4-16.9,0.2-22.9-0.6
		c0.1,16.8,0.2,29.2,0.2,37.4c0,2.2-0.1,5.6-0.4,10.3c-0.3,4.7-0.4,8.8-0.3,12.4c0.1,3.6,0.4,6.9,1.1,9.9c0.1,0.8-0.2,1.3-1.1,1.5
		C510,274.7,509.4,274.3,509.2,273.4z M510.8,135.1c-0.1,0.3-0.2,0.6-0.2,0.8v3.3c0,2.3,0.1,5.7,0.2,10.1c0,2.1,0.1,4.5,0.2,7.3
		c0.1,2.8,0.2,5.1,0.3,6.9c0.1,1.8,0.1,3,0.1,3.5v32.8c5.8,1,13.3,1.2,22.5,0.8c0.1-0.1,0.3-0.2,0.4-0.2c0.5-0.3,1.1-0.2,1.7,0.2
		c5.4-0.4,9.9-1,13.6-1.9c4.3-0.8,7.3-1.9,9.1-3.3c3.4-2.6,5.8-6.5,7.2-11.8c1.4-5.2,1.7-10.9,0.8-17.1c-0.7-5.9-2.3-11.4-5-16.5
		c-2.6-5.1-5.8-8.8-9.5-11.1c-1.4-0.8-4.1-1.7-8.1-2.5c-4-0.8-8.3-1.4-13-1.9c-4.8-0.4-9.2-0.5-13-0.4
		C514,134.4,511.5,134.6,510.8,135.1z"/>
	<path class="st0" d="M660.7,145.4c-1.5-0.3-3.2-1-5-2.3c-0.4-0.4-1.2-1-2.3-1.9c-1.1-0.8-1.9-1.4-2.3-1.9c-4.3-3.2-8.7-5-13.4-5.6
		c-6.7-0.7-12.5,0.6-17.1,3.8c-4.7,3.2-8.2,7.9-10.5,13.9c-2.2,5.6-3.2,11.8-2.9,18.5c0.3,6.7,1.8,12.7,4.5,18.1
		c2.1,3.9,8.1,8.7,18.2,14.7c1.2,0.8,3.2,2,5.8,3.5l6.6,3.7l5.2,3.3c1.9,1.2,3.5,2.4,4.7,3.5c6.6,5.6,10.3,13.2,11.1,22.7
		c0.8,10-1.3,18.3-6.3,24.7c-5,6.4-11.7,10.6-19.9,12.5c-7.7,1.8-15.4,1.3-23.1-1.5c-7.7-2.8-13.5-7.7-17.3-14.8
		c-0.6-0.8-0.4-1.5,0.5-2c0.9-0.5,1.5-0.2,2,0.7c3.6,6.3,8.9,10.8,15.9,13.4c7,2.6,14.2,3,21.5,1.2c7.6-1.8,13.6-5.6,18.2-11.4
		c4.5-5.9,6.5-13.4,5.8-22.5c-0.7-8.8-4.1-15.8-10.3-21.1c-1.1-1-2.6-2-4.5-3.1l-5-3.3l-6.2-3.5c-2.6-1.5-4.6-2.8-6-3.7
		c-10.5-6.2-16.9-11.5-19.2-15.9c-3-5.6-4.7-12-5-19c-0.4-7.2,0.6-13.8,3.1-19.8c2.5-6.6,6.3-11.7,11.6-15.4
		c5.2-3.6,11.6-5.1,19.2-4.2c5.1,0.6,10,2.6,14.7,6.2l2.3,1.9c1.1,0.8,1.9,1.4,2.5,1.7c1.4,1.1,2.5,1.7,3.5,1.9
		c1,0.1,1.4,0.7,1.2,1.7C662.2,145.1,661.7,145.5,660.7,145.4z"/>
	<path class="st0" d="M701.6,276.7c-1.1-3.7-1.3-8.6-0.6-14.7c0-0.7,0.3-3.2,0.8-7.4c0.4-2.9,0.6-5.2,0.6-6.8
		c0.3-7.7,0.4-29,0.4-63.8v-32.6c0-5.9,0.2-11.3,0.6-16.1v-0.6v-0.8c0-0.5,0.1-1,0.2-1.4c0.3-0.4,0.7-0.7,1.1-0.8
		c0.5-0.1,0.9-0.1,1.3,0.2c0.8,0.6,1.2,1.4,1,2.7c-0.1,0.3-0.2,0.6-0.2,0.8v0.4c1.7,12.1,4.5,23.7,8.5,34.7c0.3,1.1,1,2.6,2.3,4.5
		c1.4,2.1,2.3,3.6,2.9,4.7l13.4,33c5.8,14.2,9.7,23.9,11.8,29.3c0.4,0.8,1.1,2.9,2.1,6.2l3.1,9.7c1.5,5,2.5,7.9,2.9,8.9l6.8-22.7
		c2.1-6.5,6.9-19.8,14.5-39.8c6.3-16.7,10.7-30,13.2-40.1c0.7-2.5,1.8-6.1,3.2-10.7c1.4-4.7,2.3-7.6,2.6-8.9
		c0.1-0.1,0.3-0.5,0.4-1.1c0.1-0.6,0.3-1.4,0.6-2.4c0.3-1,0.5-1.9,0.6-2.7c0.5-1.7,1-3,1.2-3.9c0.1-0.5,0.3-1,0.4-1.2l0.2-0.6
		c0.1-0.1,0.3-0.3,0.4-0.4c0.1-0.1,0.4-0.3,0.8-0.4c0.4-0.1,0.8,0,1.2,0.4c0.1,0.1,0.3,0.3,0.4,0.6v0.4c0.1,0.1,0.2,0.4,0.2,0.8
		c0,0.7,0.1,1.7,0.2,3.1v10.9v30.1v93.5c0,1-0.5,1.4-1.4,1.4c-1,0-1.4-0.5-1.4-1.4v-93.5v-30.1v-6.8c-0.1,0.6-0.3,1.2-0.5,1.9
		c-0.2,0.7-0.3,1.2-0.4,1.5c-0.1,0.3-0.1,0.6-0.1,0.7l-2.7,8.9c-1.5,4.5-2.5,8.1-3.1,10.7c-2.5,10-7,23.5-13.4,40.3
		c-7,18.3-11.8,31.5-14.2,39.6l-7.2,23.9c-0.1,0.1-0.2,0.3-0.2,0.4v0.8c-0.1,1.2-0.7,2.1-1.7,2.5c-0.6,0.1-1,0-1.4-0.4
		c-0.1-0.1-0.3-0.3-0.4-0.6c-0.1-0.1-0.3-0.4-0.4-0.8c-0.3-0.7-0.7-1.7-1.2-2.9l-2.9-9.1l-2.9-9.7c-1-3.2-1.6-5.1-1.9-5.8
		l-12.2-29.5l-13.4-32.8c-0.3-1-1-2.5-2.3-4.5c-1.4-2.1-2.3-3.8-2.9-5.2c-2.8-7.7-5-16-6.8-25v5.2V184c0,34.8-0.1,56.1-0.4,63.8
		c0,1.7-0.2,4.1-0.6,7.2c-0.6,4.3-0.8,6.7-0.8,7.2c-0.6,5.8-0.3,10.3,0.6,13.6c0.3,1-0.1,1.6-1,1.9
		C702.5,278,701.9,277.7,701.6,276.7z"/>
	<path class="st0" d="M891.3,235c-7.3,0.7-16.7,0.8-28.1,0.2c-15.8-0.6-25.1-0.8-27.7-0.8c-0.4,0-0.8-0.1-1-0.4
		c-5.4,16.1-8.9,29.4-10.7,39.8c-0.1,1-0.7,1.4-1.7,1.2c-1-0.1-1.4-0.7-1.2-1.7c1.2-7.6,3.1-15.5,5.6-23.7
		c2.5-8.3,5.4-17.2,8.7-26.9c3.3-9.7,5.8-17.4,7.4-23c0.5-1.9,1.9-7,4-15.3c2.1-8.3,3.9-14.8,5.3-19.6c2.2-8.3,4.1-14.9,5.8-19.8
		c2.2-6.2,3.9-10.2,5.2-12c0.7-0.8,1.4-0.9,2.2-0.3c0.8,0.6,0.9,1.3,0.3,2c-1.2,1.5-2.8,5.3-4.7,11.4c-1.5,4.4-3.4,10.9-5.8,19.4
		l-5.2,19.8c-2.2,8.3-3.6,13.4-4.1,15.3c-1.5,5.1-4.9,15.4-10.1,31h0.2c2.6,0,11.9,0.3,27.9,0.8c11.3,0.5,20.4,0.5,27.5-0.2h0.6
		c-1.7-7.6-3.6-15.8-5.8-24.8c-9.5-37.4-16.3-61-20.4-70.6c-0.4-1-0.2-1.6,0.7-2c0.9-0.3,1.5-0.1,1.8,0.7
		c4.3,9.8,11.1,33.5,20.6,71.2c4.3,17.1,7.6,31.4,9.9,43.1c1.2,6.3,2.1,11.5,2.5,15.5c0.5,4.5,0.6,7.6,0.2,9.1c-0.3,1-0.9,1.3-1.9,1
		c-1-0.3-1.3-0.9-1-1.9c0.4-1.2,0.3-3.9-0.2-7.8c-0.4-4-1.2-9.2-2.5-15.5l-3.3-15.7C891.9,234.8,891.6,235,891.3,235z"/>
	<path class="st0" d="M940.3,276.3c-0.7-2.9-1-6.1-1-9.7c0-3.6,0.1-6.7,0.4-9.5c0.3-2.8,0.7-6.1,1.1-10.1c0.5-4,0.8-7,0.9-9.1
		c0.5-6.5,0.7-16,0.4-28.7c-0.3-12.9-0.2-22.6,0.2-29.1c0.1-2.2,0.2-12.5,0.2-30.8V139c0-0.1,0-0.3-0.1-0.5
		c-0.1-0.2-0.1-0.5-0.2-0.9c-0.1-0.4-0.1-0.8-0.1-1c-0.1-0.8-0.2-1.4-0.2-1.9c0.1-0.5,0.4-1,0.8-1.2c0.4-0.3,0.9-0.3,1.4-0.2
		c1.4,0.3,2.3,1.3,2.7,3.1l0.6,2.5c1.5,2.8,2.9,5.7,4.2,9c1.3,3.2,2.8,7.1,4.3,11.6c1.6,4.5,2.7,7.5,3.4,9.2
		c3,8.3,8.5,19.5,16.5,33.9c9.4,16.9,15.3,28.1,17.8,33.4c0.8,1.5,2.5,4.7,5,9.7s4.3,8.8,5.4,11.6l2.3,4.5c1.1,2.1,1.9,3.6,2.3,4.5
		c0.1,0,0.2,0.1,0.2,0.2c0.8-5.8,1.4-14.1,1.7-25.1c0.3-10.9,0.5-17.8,0.6-20.5c0.3-3,0.7-14.5,1.2-34.5c0.1-4.7,0.2-22.6,0.2-53.7
		c0-1,0.5-1.4,1.4-1.4c1,0,1.4,0.5,1.4,1.4c0,31.1-0.1,49-0.2,53.7c-0.6,20.1-1,31.6-1.2,34.5c-0.1,1.9-0.3,8.9-0.6,20.9
		c-0.3,12-1,21-2.1,27v0.4v1c-0.1,1.1-0.6,1.9-1.2,2.5c-0.6,0.3-1.1,0.4-1.5,0.3c-0.5-0.1-0.9-0.4-1.3-0.9c-0.3-0.4-0.5-1-0.6-1.7
		c0-0.3,0-0.6-0.1-1c-0.1-0.4-0.1-0.7-0.1-0.8c-0.1-0.6-0.2-0.9-0.2-1c-0.4-1-1.2-2.5-2.3-4.5c-1.1-1.9-1.9-3.4-2.3-4.5
		c-1.2-2.8-3.1-6.6-5.6-11.6s-4.1-8.2-4.7-9.7c-2.2-4.7-8.2-15.8-18-33.2c-7.7-13.9-13.3-25.3-16.7-34.1l-3.3-9.3
		c-1.4-4.1-2.7-7.7-3.9-10.8c-1.2-3.1-2.5-6-3.9-8.6v8.3c0,18.3-0.1,28.6-0.2,30.8c-0.4,6.5-0.5,16.1-0.2,28.9
		c0.3,12.8,0.1,22.6-0.4,29.3c-0.1,2.2-0.4,5.3-0.9,9.2c-0.5,3.9-0.9,7.2-1.1,9.8c-0.3,2.6-0.4,5.6-0.4,9.1c0,3.4,0.3,6.5,1,9.1
		c0.1,1-0.2,1.5-1.1,1.8C941.1,277.4,940.5,277.1,940.3,276.3z"/>
	<path class="st0" d="M205.6,396.8c0-6.2-4-11.4-12-15.5c-7.7-3.9-14.7-5-21.1-3.5c-3,0.7-6.3,2.4-9.7,5.3c-3.4,2.8-6.3,5.7-8.5,8.8
		c-6.6,9.2-11.3,20.1-14,32.5c-2.8,12.5-3.6,24.8-2.6,37.2c1,12.3,3.7,23.8,7.9,34.4c2.5,6.6,6.1,12.4,10.7,17.2
		c4.7,4.9,10.1,8.3,16.3,10.3c6.2,2,12.7,1.4,19.4-1.8c2.9-1.4,5.8-3.9,8.7-7.4c4-5,6.6-8,7.8-9.1c0.8-0.7,1.5-0.7,2.2,0.1
		c0.6,0.8,0.6,1.4-0.1,2c-1.2,1-3.8,3.9-7.6,8.9c-3.2,3.9-6.4,6.5-9.7,8.1c-7.6,3.7-14.7,4.4-21.5,2.2c-6.7-2.3-12.6-6-17.5-11.3
		c-5-5.2-8.8-11.2-11.6-18c-4.3-11-7-22.8-8.1-35.4c-1.1-12.6-0.2-25.3,2.7-38.1c2.9-12.8,7.7-23.9,14.5-33.4
		c2.3-3.3,5.4-6.5,9.1-9.5c3.7-3,7.3-5,10.7-5.8c7.2-1.7,14.9-0.3,23.1,3.9c9.1,4.7,13.6,10.7,13.6,18c0,1-0.5,1.4-1.4,1.4
		C206.1,398.3,205.6,397.8,205.6,396.8z"/>
	<path class="st0" d="M276,379.5v-0.4c0-1,0.5-1.4,1.4-1.4c11.1,0,19.1,0.8,23.9,2.3c14.9,4.8,24.2,19.3,27.9,43.4
		c2.6,17.6,2.3,35.5-1,53.7c-2.1,10.7-5.4,20.3-10.1,28.7c-6.2,11.1-13.8,17.6-22.9,19.4c-14.2,2.8-25.7-1.4-34.7-12.6
		c-7.7-9.6-12.7-23.3-15.1-41.1c-2.2-16.2-1.7-32.3,1.4-48.1c3-16.5,8.1-28.5,15.1-35.9C265.3,383.9,269.9,381.3,276,379.5z
		 M282.6,380.5c-0.6,0.1-1.7,0.5-3.5,1c-1.8,0.6-3,0.9-3.5,1c-0.6,0.1-1.5,0.5-3,1c-1.4,0.6-2.5,1-3.2,1.4l-2.5,1.9
		c-1.1,0.7-2.1,1.5-2.9,2.5c-6.6,7-11.4,18.4-14.5,34.3c-2.9,15.7-3.3,31.5-1.2,47.5c2.2,17.1,7,30.2,14.5,39.4
		c8.3,10.3,18.9,14.2,32,11.6c8-1.7,14.9-7.6,20.9-18c4.5-8,7.8-17.2,9.7-27.7c3.3-18,3.6-35.6,1-52.9c-3.6-23-12.2-36.6-25.8-40.9
		C296.2,381.3,290.2,380.5,282.6,380.5z"/>
	<path class="st0" d="M371.8,383.8c-0.4,2.9-0.6,5.9-0.6,9.1c0,3.4,0,6.1,0.1,8.1c0.1,1.9,0.3,5.2,0.6,9.8c0.3,4.6,0.5,7.5,0.5,8.6
		c0.4,6.1,0.7,12.2,0.7,18.5c0.1,6.3,0.1,14.5,0,24.6c-0.1,10.1-0.1,16.3-0.1,18.7c0,1.1-0.1,4-0.3,8.8c-0.2,4.7-0.3,8.4-0.3,11
		c-0.1,4.8-0.1,8.6,0,11.4c0,1.7,0.1,3,0.2,4.1v1.2h0.4h3.7c2.5,0,6.4-0.1,11.8-0.2c14.5-0.6,23.3-0.8,26.6-0.8c1,0,1.4,0.5,1.4,1.4
		c0,1-0.5,1.4-1.4,1.4c-3.3,0-12.1,0.3-26.4,0.8c-5.5,0.1-9.5,0.2-12,0.2H373h-1.2c-0.1-0.1-0.3-0.2-0.6-0.2
		c-0.4-0.1-0.7-0.4-0.8-0.8c-0.3-0.6-0.5-1.5-0.6-2.9c-0.1-1.1-0.2-2.5-0.2-4.3c-0.1-2.8-0.1-6.5,0-11.4c0-2.6,0.1-6.3,0.3-11
		c0.2-4.7,0.3-7.7,0.3-8.8c0-2.5,0-8.7,0.1-18.7c0.1-10,0.1-18.1,0-24.4c-0.1-6.3-0.3-12.5-0.7-18.7c0-0.8-0.2-3.6-0.5-8.3
		c-0.3-4.7-0.6-8-0.6-9.9c-0.1-1.9-0.1-4.7-0.1-8.3c0-3.6,0.2-6.7,0.6-9.5c0.1-1,0.7-1.4,1.7-1.2
		C371.5,382.3,371.9,382.9,371.8,383.8z"/>
	<path class="st0" d="M457.7,383.8c-0.4,2.9-0.6,5.9-0.6,9.1c0,3.4,0,6.1,0.1,8.1c0.1,1.9,0.3,5.2,0.6,9.8c0.3,4.6,0.5,7.5,0.5,8.6
		c0.4,6.1,0.7,12.2,0.7,18.5c0.1,6.3,0.1,14.5,0,24.6c-0.1,10.1-0.1,16.3-0.1,18.7c0,1.1-0.1,4-0.3,8.8c-0.2,4.7-0.3,8.4-0.3,11
		c-0.1,4.8-0.1,8.6,0,11.4c0,1.7,0.1,3,0.2,4.1v1.2h0.4h3.7c2.5,0,6.4-0.1,11.8-0.2c14.5-0.6,23.3-0.8,26.6-0.8c1,0,1.4,0.5,1.4,1.4
		c0,1-0.5,1.4-1.4,1.4c-3.3,0-12.1,0.3-26.4,0.8c-5.5,0.1-9.5,0.2-12,0.2h-3.7h-1.2c-0.1-0.1-0.3-0.2-0.6-0.2
		c-0.4-0.1-0.7-0.4-0.8-0.8c-0.3-0.6-0.5-1.5-0.6-2.9c-0.1-1.1-0.2-2.5-0.2-4.3c-0.1-2.8-0.1-6.5,0-11.4c0-2.6,0.1-6.3,0.3-11
		c0.2-4.7,0.3-7.7,0.3-8.8c0-2.5,0-8.7,0.1-18.7c0.1-10,0.1-18.1,0-24.4c-0.1-6.3-0.3-12.5-0.7-18.7c0-0.8-0.2-3.6-0.5-8.3
		c-0.3-4.7-0.6-8-0.6-9.9c-0.1-1.9-0.1-4.7-0.1-8.3c0-3.6,0.2-6.7,0.6-9.5c0.1-1,0.7-1.4,1.7-1.2
		C457.4,382.3,457.8,382.9,457.7,383.8z"/>
	<path class="st0" d="M591.9,383c-1.1,0.1-10.2,0.3-27.3,0.4c-7,0.1-12.3,0.3-15.9,0.4c-2.3,0.1-4.1,0.3-5.4,0.4
		c-0.6,0.1-1,0.3-1.4,0.4h-0.2l-0.6,1.2c-0.1,0.8-0.3,1.9-0.4,3.3c-0.3,2.2-0.5,5.1-0.6,8.7v6.6v5.4v3.5c0,4.5,0.4,10.2,1.2,16.9
		c1.5,10.7,2.3,16.3,2.3,16.7c4.8-0.3,18.4-0.4,40.7-0.4c1,0,1.4,0.5,1.4,1.4c0,1-0.5,1.4-1.4,1.4c-22.2,0-35.6,0.1-40.5,0.4
		c0.4,4.8,0.6,11.4,0.6,19.6c0,10.6,0.1,18,0.4,22.1v6.2c-0.1,6.2-0.2,9.4-0.2,9.7c-0.1,3.9-0.1,6.9,0,9.1c0,1.2,0.1,2.3,0.2,3.1
		c0,0.4,0.1,0.8,0.2,1c0.3,0,0.6,0.1,1,0.2c1.2,0.1,2.9,0.3,5,0.4c3.7,0.1,8.8,0.3,15.3,0.4h26c1,0,1.4,0.5,1.4,1.4
		c0,1-0.5,1.4-1.4,1.4h-26c-6.5-0.1-11.6-0.3-15.3-0.4c-2.2-0.1-3.9-0.3-5.2-0.4c-0.7-0.1-1.3-0.3-1.9-0.4c-0.3,0-0.5-0.1-0.6-0.2
		c-0.4-0.1-0.7-0.3-0.8-0.6c-0.3-0.6-0.5-1.4-0.6-2.5c-0.1-1-0.2-2.1-0.2-3.5c-0.1-2.2-0.1-5.3,0-9.3c0-0.3,0.1-3.4,0.2-9.5v-6.2
		c-0.3-4-0.4-11.4-0.4-22.1c0-8.3-0.2-14.7-0.6-19.4h-0.4c-0.8,0-1.3-0.4-1.3-1.3c-0.1-0.9,0.4-1.4,1.3-1.5h0.2
		c0-0.4-0.8-5.9-2.3-16.5c-0.8-6.9-1.2-12.7-1.2-17.3v-3.7v-5.6v-6.2c0.1-3.7,0.3-6.7,0.6-9.1c0.1-1.4,0.3-2.5,0.6-3.5
		c0.3-1.2,0.7-2.1,1.2-2.7c0.3-0.3,0.8-0.5,1.4-0.8c0.5-0.1,1.2-0.2,1.9-0.2c1.4-0.3,3.2-0.5,5.6-0.6c3.7-0.1,9.1-0.3,16.1-0.4
		c16.9-0.1,25.9-0.3,26.8-0.4c1-0.1,1.5,0.3,1.7,1.2C593.2,382.3,592.8,382.9,591.9,383z"/>
	<path class="st0" d="M696.3,396.8c0-6.2-4-11.4-12-15.5c-7.7-3.9-14.7-5-21.1-3.5c-3,0.7-6.3,2.4-9.7,5.3c-3.4,2.8-6.3,5.7-8.5,8.8
		c-6.6,9.2-11.3,20.1-14,32.5c-2.8,12.5-3.6,24.8-2.6,37.2s3.7,23.8,7.9,34.4c2.5,6.6,6.1,12.4,10.7,17.2
		c4.7,4.9,10.1,8.3,16.3,10.3c6.2,2,12.7,1.4,19.4-1.8c2.9-1.4,5.8-3.9,8.7-7.4c4-5,6.6-8,7.8-9.1c0.8-0.7,1.5-0.7,2.2,0.1
		c0.6,0.8,0.6,1.4-0.1,2c-1.2,1-3.8,3.9-7.6,8.9c-3.2,3.9-6.4,6.5-9.7,8.1c-7.6,3.7-14.7,4.4-21.5,2.2c-6.7-2.3-12.6-6-17.5-11.3
		c-5-5.2-8.8-11.2-11.6-18c-4.3-11-7-22.8-8.1-35.4c-1.1-12.6-0.2-25.3,2.7-38.1c2.9-12.8,7.7-23.9,14.5-33.4
		c2.3-3.3,5.4-6.5,9.1-9.5c3.7-3,7.3-5,10.7-5.8c7.2-1.7,14.9-0.3,23.1,3.9c9.1,4.7,13.6,10.7,13.6,18c0,1-0.5,1.4-1.4,1.4
		C696.8,398.3,696.3,397.8,696.3,396.8z"/>
	<path class="st0" d="M779.3,383.8c-7-1.2-16.1-1.6-27.3-1c2.3,6.3,3.4,14.7,3.1,25c-0.1,3.3-0.5,8.1-1,14.5
		c-0.4,6.2-0.7,10.6-0.8,13.2c-0.3,11-0.2,26.6,0.1,46.7c0.3,20.1,0.5,33,0.5,38.8c0,1-0.5,1.4-1.4,1.4c-1,0-1.4-0.5-1.4-1.4
		c0-5.8-0.2-18.8-0.5-38.9c-0.3-20.2-0.4-35.7-0.1-46.6c0.1-2.8,0.4-7.2,0.8-13.4c0.5-6.3,0.9-11.1,1-14.2c0.3-10.5-0.8-18.8-3.1-25
		c-13.9,0.8-22.3,1.2-25.2,1.2c-1,0-1.4-0.5-1.4-1.4c0-1,0.5-1.4,1.4-1.4c2.6,0,10.8-0.4,24.6-1.2c0.1-0.1,0.3-0.3,0.6-0.4
		c0.7-0.4,1.3-0.3,1.9,0.4c12-0.5,21.5-0.2,28.7,1c1,0.1,1.4,0.7,1.2,1.7C780.8,383.6,780.3,384,779.3,383.8z"/>
	<path class="st0" d="M825.6,384c0.8,0.6,1,1.2,0.4,2.1c-0.6,0.8-1.1,3.1-1.7,6.8c-0.4,3.6-0.8,8.3-1.2,14.2
		c-0.6,10.3-0.9,24-1,41.1v29.5c0,7.8,0,16.2,0.1,25.2c0.1,8.9,0.1,14.1,0.1,15.5c0,1-0.5,1.4-1.4,1.4c-1,0-1.4-0.5-1.4-1.4
		c0-1.4,0-6.5-0.1-15.5c-0.1-8.9-0.1-17.3-0.1-25.2v-29.5c0.1-17.2,0.5-30.9,1-41.1c0.4-6.2,0.8-11.1,1.2-14.7
		c0.5-4.1,1.2-6.8,2.1-8.1C824.1,383.6,824.7,383.5,825.6,384z"/>
	<path class="st0" d="M915.6,383c-1.1,0.1-10.2,0.3-27.3,0.4c-7,0.1-12.3,0.3-15.9,0.4c-2.3,0.1-4.1,0.3-5.4,0.4
		c-0.6,0.1-1,0.3-1.4,0.4h-0.2l-0.6,1.2c-0.1,0.8-0.3,1.9-0.4,3.3c-0.3,2.2-0.5,5.1-0.6,8.7v6.6v5.4v3.5c0,4.5,0.4,10.2,1.2,16.9
		c1.5,10.7,2.3,16.3,2.3,16.7c4.8-0.3,18.4-0.4,40.7-0.4c1,0,1.4,0.5,1.4,1.4c0,1-0.5,1.4-1.4,1.4c-22.2,0-35.6,0.1-40.5,0.4
		c0.4,4.8,0.6,11.4,0.6,19.6c0,10.6,0.1,18,0.4,22.1v6.2c-0.1,6.2-0.2,9.4-0.2,9.7c-0.1,3.9-0.1,6.9,0,9.1c0,1.2,0.1,2.3,0.2,3.1
		c0,0.4,0.1,0.8,0.2,1c0.3,0,0.6,0.1,1,0.2c1.2,0.1,2.9,0.3,5,0.4c3.7,0.1,8.8,0.3,15.3,0.4h26c1,0,1.4,0.5,1.4,1.4
		c0,1-0.5,1.4-1.4,1.4h-26c-6.5-0.1-11.6-0.3-15.3-0.4c-2.2-0.1-3.9-0.3-5.2-0.4c-0.7-0.1-1.3-0.3-1.9-0.4c-0.3,0-0.5-0.1-0.6-0.2
		c-0.4-0.1-0.7-0.3-0.8-0.6c-0.3-0.6-0.5-1.4-0.6-2.5c-0.1-1-0.2-2.1-0.2-3.5c-0.1-2.2-0.1-5.3,0-9.3c0-0.3,0.1-3.4,0.2-9.5v-6.2
		c-0.3-4-0.4-11.4-0.4-22.1c0-8.3-0.2-14.7-0.6-19.4h-0.4c-0.8,0-1.3-0.4-1.3-1.3c-0.1-0.9,0.4-1.4,1.3-1.5h0.2
		c0-0.4-0.8-5.9-2.3-16.5c-0.8-6.9-1.2-12.7-1.2-17.3v-3.7v-5.6v-6.2c0.1-3.7,0.3-6.7,0.6-9.1c0.1-1.4,0.3-2.5,0.6-3.5
		c0.3-1.2,0.7-2.1,1.2-2.7c0.3-0.3,0.8-0.5,1.4-0.8c0.5-0.1,1.2-0.2,1.9-0.2c1.4-0.3,3.2-0.5,5.6-0.6c3.7-0.1,9.1-0.3,16.1-0.4
		c16.9-0.1,25.9-0.3,26.8-0.4c1-0.1,1.5,0.3,1.7,1.2C917,382.3,916.5,382.9,915.6,383z"/>
</g>
<circle id="oog_x5F_links" class="st1" cx="340.9" cy="337.6" r="10.6"/>
<path id="lit_x5F_links" class="st2" d="M428.5,337.1c17,11.9-39.3,37.6-87.7,37.6s-98-19.6-87.7-37.6c10-17.4,39.3-37.6,87.7-37.6
	S417.6,329.4,428.5,337.1z"/>
<circle id="oog_x5F_rechts" class="st3" cx="692.3" cy="337.6" r="10.6"/>
<path id="lit_x5F_rechts" class="st4" d="M604.8,337.1c-17,11.9,39.3,37.6,87.7,37.6s98-19.6,87.7-37.6
	c-10-17.4-39.3-37.6-87.7-37.6S615.7,329.4,604.8,337.1z"/>
<g id="bril" transform="translate(0.000000,640.000000) scale(0.100000,-0.100000)">
	<path class="st5" d="M6992.7,4227.8c-224.6-15.9-410.7-45.6-882.4-139.5c-503-99.9-685.8-123.6-959.3-123.6
		c-251.5-0.5-368.5,15.4-769.3,104.3c-229,50.5-285.5,62-381.6,76.3c-157.6,24.2-370.7,52.2-507.9,65.9
		c-255.3,26.4-514,23.1-895.1-11c-480.5-42.8-645.8-48.9-872.5-34.6l-51.6,3.8l3.3-84.6c9.3-215.8,51.6-504.6,90.1-610.1
		c20.9-58.2,34-76.9,111.5-152.7c69.2-68.1,70.3-69.2,84-112.6c7.7-24.2,23.1-78.5,34-120.8c43.4-167.5,123.6-383.8,238.9-642.5
		c75.8-171.3,103.2-222.9,145.5-275.7c203.2-253.7,684.2-404.7,1177.3-370.1c237.2,17,387.7,51.6,528.8,121.9
		c257,128.5,451.4,338.8,644.1,696.8c77.4,143.3,96.1,191.1,143.9,367.9c39,145,57.1,198.8,90.6,267.4
		c46.7,97.2,67,105.4,229.5,97.2c101.6-5.5,103.2-5.5,126.8-21.4c59.3-41.2,109.8-137.3,161.4-307.5
		c56.6-187.2,92.8-281.1,162-422.8c162-332.2,366.3-539.2,654.5-663.9c412.4-178.5,916.5-176.8,1292.1,4.4
		c133.4,64.2,235.6,136.7,326.7,231.7c115.9,120.8,193.8,255.9,257.5,446.4c23.1,69.2,36.8,118.6,85.7,310.8
		c49.4,196.6,74.7,280,97.7,322.9c19.2,36.2,55.5,71.4,104.3,100.5c49.4,29.7,62.6,43.9,89,95.5c80.2,159.8,159.2,479.9,149.4,607.9
		c-3.8,48.9-20.9,86.8-46.7,104.3c-14.3,9.3-29.7,12.1-82.4,15.4c-70.8,4.9-263.6,0-349.8-8.2c-30.2-3.3-114.2-7.1-186.7-8.8
		c-103.8-2.7-145.5-1.6-194.9,4.9c-34.6,4.9-126.3,17.6-203.2,28s-176.8,23.1-222.4,28C7316.1,4231.1,7091,4234.9,6992.7,4227.8z
		 M3796.8,4000.5c237.2-28,512.9-108.2,658.9-190.5c96.6-54.4,169.7-119.7,210.9-187.8c112-186.7,61.5-474.4-164.2-934
		c-77.4-157.6-142.2-250.4-246.6-353.6c-169.1-167.5-381.6-269.6-648.5-311.9c-87.9-13.7-330-13.7-426.7,0
		c-85.1,12.1-193.3,34-252,50.5c-206.5,60.4-375,207.6-473.9,415.1c-34.6,72.5-86.2,228.4-125.7,381.1
		c-67.5,258.6-95,565.6-63.1,708.4c46.1,209.2,238.3,328.4,619.4,383.8c87.3,13.2,294.3,35.1,387.1,41.7c46.7,3.3,95,6.6,107.1,7.7
		C3432.2,4015.8,3729.8,4008.7,3796.8,4000.5z M7110.7,4001c465.6-41.7,661.1-87.9,811.6-191.6c131.8-90.6,177.9-210.3,169.1-440.4
		c-8.2-229-54.9-465.6-146.1-739.7c-54.4-164.2-107.1-257.5-199.3-354.2c-115.3-120.3-234.5-184-420.6-224.6
		c-163.1-35.1-366.3-49.4-514.5-35.7c-332.8,31.3-609.5,172.4-805.5,411.3c-98.3,120.8-205.9,327.3-298.7,573.8
		c-76.9,205.4-102.7,384.9-73,508.5c53.3,221.3,278.9,364.1,727.6,461.3c74.1,15.9,226.2,36.8,299.3,41.2
		C6736.2,4015.3,7019,4008.7,7110.7,4001z"/>
</g>
</svg>
