<?xml version="1.0" encoding="iso-8859-1"?>
<!-- Generator: Adobe Illustrator 19.0.0, SVG Export Plug-In . SVG Version: 6.00 Build 0)  -->
<svg version="1.1" id="Capa_1" xmlns="http://www.w3.org/2000/svg" xmlns:xlink="http://www.w3.org/1999/xlink" x="0px" y="0px"
	 viewBox="0 0 480 480" style="enable-background:new 0 0 480 480;" xml:space="preserve">
<g>
	<g>
		<path d="M472,224H352V8c0-4.418-3.582-8-8-8H8C3.582,0,0,3.582,0,8v400c0.044,39.746,32.254,71.956,72,72h336
			c39.746-0.044,71.956-32.254,72-72V232C480,227.582,476.418,224,472,224z M72,464c-30.913-0.035-55.965-25.087-56-56V16h320v392
			c0.005,21.77,9.879,42.363,26.848,56H72z M464,408c0,30.928-25.072,56-56,56c-30.928,0-56-25.072-56-56V240h112V408z"/>
	</g>
</g>
<g>
	<g>
		<path d="M136,32H40c-4.418,0-8,3.582-8,8v96c0,4.418,3.582,8,8,8h96c4.418,0,8-3.582,8-8V40C144,35.582,140.418,32,136,32z
			 M128,128H48V48h80V128z"/>
	</g>
</g>
<g>
	<g>
		<path d="M312,48H168c-4.418,0-8,3.582-8,8s3.582,8,8,8h144c4.418,0,8-3.582,8-8S316.418,48,312,48z"/>
	</g>
</g>
<g>
	<g>
		<path d="M312,80H168c-4.418,0-8,3.582-8,8s3.582,8,8,8h144c4.418,0,8-3.582,8-8S316.418,80,312,80z"/>
	</g>
</g>
<g>
	<g>
		<path d="M312,112H168c-4.418,0-8,3.582-8,8s3.582,8,8,8h144c4.418,0,8-3.582,8-8S316.418,112,312,112z"/>
	</g>
</g>
<g>
	<g>
		<path d="M312,168H40c-4.418,0-8,3.582-8,8s3.582,8,8,8h272c4.418,0,8-3.582,8-8S316.418,168,312,168z"/>
	</g>
</g>
<g>
	<g>
		<path d="M312,200H40c-4.418,0-8,3.582-8,8s3.582,8,8,8h272c4.418,0,8-3.582,8-8S316.418,200,312,200z"/>
	</g>
</g>
<g>
	<g>
		<path d="M312,232H40c-4.418,0-8,3.582-8,8s3.582,8,8,8h272c4.418,0,8-3.582,8-8S316.418,232,312,232z"/>
	</g>
</g>
<g>
	<g>
		<path d="M88,288c-4.418,0-8,3.582-8,8v51.12l-33.144-55.24c-2.277-3.786-7.192-5.01-10.979-2.733
			c-2.405,1.446-3.877,4.047-3.877,6.853v80c0,4.418,3.582,8,8,8s8-3.582,8-8v-51.12l33.144,55.24
			c1.446,2.407,4.048,3.879,6.856,3.88c0.722-0.002,1.44-0.099,2.136-0.288c3.466-0.96,5.865-4.115,5.864-7.712v-80
			C96,291.582,92.418,288,88,288z"/>
	</g>
</g>
<g>
	<g>
		<path d="M152,368h-24v-24h16c4.418,0,8-3.582,8-8s-3.582-8-8-8h-16v-24h24c4.418,0,8-3.582,8-8s-3.582-8-8-8h-32
			c-4.418,0-8,3.582-8,8v80c0,4.418,3.582,8,8,8h32c4.418,0,8-3.582,8-8S156.418,368,152,368z"/>
	</g>
</g>
<g>
	<g>
		<path d="M240.836,288.044c-0.012-0.001-0.024-0.002-0.036-0.004c-4.394-0.464-8.332,2.722-8.795,7.116
			c-0.002,0.015-0.003,0.029-0.005,0.044l-4.28,42.784l-12.168-36.512c-1.38-4.197-5.901-6.482-10.098-5.102
			c-2.415,0.794-4.308,2.687-5.102,5.102l-12.112,36.512L184,295.2c-0.442-4.396-4.364-7.602-8.76-7.16s-7.602,4.364-7.16,8.76l8,80
			c0.439,4.396,4.359,7.604,8.756,7.165c3.139-0.314,5.801-2.443,6.796-5.437L208,329.296l16.408,49.232
			c1.089,3.268,4.147,5.473,7.592,5.472c0.297,0,0.593-0.016,0.888-0.048c3.764-0.401,6.732-3.386,7.112-7.152l8-80
			C248.44,292.404,245.232,288.483,240.836,288.044z"/>
	</g>
</g>
<g>
	<g>
		<path d="M312,320c4.418,0,8-3.582,8-8v-16c0-4.418-3.582-8-8-8h-40c-4.418,0-8,3.582-8,8v40c0,4.418,3.582,8,8,8h32v24h-24v-8
			c0-4.418-3.582-8-8-8s-8,3.582-8,8v16c0,4.418,3.582,8,8,8h40c4.418,0,8-3.582,8-8v-40c0-4.418-3.582-8-8-8h-32v-24h24v8
			C304,316.418,307.582,320,312,320z"/>
	</g>
</g>
<g>
</g>
<g>
</g>
<g>
</g>
<g>
</g>
<g>
</g>
<g>
</g>
<g>
</g>
<g>
</g>
<g>
</g>
<g>
</g>
<g>
</g>
<g>
</g>
<g>
</g>
<g>
</g>
<g>
</g>
</svg>
