<svg id="svg14064" xmlns="http://www.w3.org/2000/svg" viewBox="0 0 885.83 110.41">
  <defs>
    <style>
      .cls-1 {
        fill: #fff;
      }
    </style>
  </defs>
  <title>Volkskrant</title>
  <g id="layer1">
    <g id="Ebene_1">
      <path id="path14059" class="cls-1" d="M101.65,124.12v-4H98.94c-7.16,0-8.24-.76-8.24-6.18V15.66h-39v4h4.77c7.16,0,8.24.65,8.24,5.53V79.31C60,76,53,73.78,45.8,73.78c-14.1,0-28.09,9.87-28.09,26s14.2,26,28.09,26c8.89,0,15.29-2.3,20.06-6.42v4.68ZM64.89,103.5c0,8.78-.76,11.49-3.14,13.55a11.91,11.91,0,0,1-7.48,2.71c-8.89,0-9.11-6.94-9.11-20,0-14,.65-20,9.11-20a11.9,11.9,0,0,1,7.48,2.71c2.39,2.06,3.14,4.77,3.14,13.55Zm106.05-2.71c-.33-17.35-12.15-27-33.18-27C116,73.78,102.3,83.87,102.3,100c0,15.62,14.42,26,36,26,13.77,0,25.16-5.22,32.21-14.44l-2.71-2.71c-6.72,7.92-15.51,12.47-24.51,12.47-13.88,0-15.07-7.81-15.07-18.11v-2.49Zm-24.72-4.34h-18V95c0-6.72.32-10.74,1.08-12.58,1.08-2.93,3.9-4.55,7.92-4.55s6.83,1.63,7.92,4.55c.76,1.84,1.08,5.86,1.08,12.58Zm72.22,27.67,44-97.07c2.17-4.88,3.25-6.29,5.53-6.94,1.41-.33,2.49-.43,6.4-.43h1.08v-4H241.64v4h.87c9.76,0,12.36,1.19,12.36,5.21,0,3.25-2.71,9.22-4.34,12.9L227.33,90.16l-24.94-56c-2.49-5.64-3.36-8-3.36-10,0-2.28,1.41-3.79,4-4.23a37,37,0,0,1,6.61-.33h2.06v-4H152.92v4h3.69c5.2,0,7,.54,8.46,2.17A26,26,0,0,1,168,27l44.69,97.07Zm98.35-24.52c0-15.72-14.42-26-36.54-26-22.34,0-36.54,10.19-36.54,26.24s14.21,26.26,36.54,26.26S316.79,115.86,316.79,99.59Zm-27,3c0,7.16-.32,12.47-1.08,14.42-1.19,3-4.23,4.88-8.46,4.88s-7.27-1.84-8.46-4.88c-.76-2-1.08-7.27-1.08-14.42V95.91c0-7.16.33-11.39,1.08-13.34,1.19-3,4.23-4.88,8.46-4.88s7.27,1.84,8.46,4.88c.76,2,1.08,6.18,1.08,13.34Zm28.41,21.49h48v-4h-2.71c-7.16,0-8.35-.65-8.35-5.64V15.66h-39v4h4.77c7.16,0,8.24.65,8.24,5.53v89.35c0,4.88-1.08,5.53-8.24,5.53H318.2Zm142.16.11v-4a6.86,6.86,0,0,1-1.63,0,11.94,11.94,0,0,1-3.36-.43c-1.08-.33-2.28-1.41-4-3.58L427.61,86.36c5.64-4.12,13.55-6.18,25.92-6.51v-4h-38v4h3.69c3.8,0,4.34.11,5.21.43a2.13,2.13,0,0,1,1.41,2c0,1.19-.65,2.17-2.49,3.8-1.08,1-3.36,2.6-4.77,3.69L407,98.18V15.66H368v4h4.77c7.16,0,8.24.65,8.24,5.53V114c0,5.42-1.08,6.18-8.24,6.18H370v4h46.74v-4h-1.41c-7.16,0-8.35-.87-8.35-6.29V100.46l18.22,23.77Zm62.24-16.5c0-7.16-3.69-11.17-14.21-15.18l-6.51-2.49c-6.4-2.49-7.92-3.79-7.92-6.29s2.28-4.12,6.51-4.12c4.66,0,9.87,1.73,12.58,4.12,1.84,1.63,2.39,3,2.39,6.83v1.19H519v-16h-3.58c-.33,1.41-.87,2.06-2.39,2.06a11.24,11.24,0,0,1-3.58-.76,61,61,0,0,0-18.33-2.93c-16.37,0-26.46,6.51-26.46,17.13,0,7.37,4.77,12,16.7,17.46l3.8,1.74c4.34,2,6,3.47,6,5.75,0,2.49-2.28,4-6.61,4-5.75,0-11.82-2.71-14.86-6.18-1.63-1.84-2.28-4.12-2.28-8v-.43h-3.69v18.56h3.69c.11-2.3.54-3.27,2-3.27a6.45,6.45,0,0,1,2.06.54c8.68,2.95,15.51,4.25,23.64,4.25C512.19,125.64,522.6,118.79,522.6,107.73Zm90.65,16.5v-4a6.86,6.86,0,0,1-1.63,0,11.94,11.94,0,0,1-3.36-.43c-1.08-.33-2.28-1.41-4-3.58L580.51,86.36c5.64-4.12,13.55-6.18,25.92-6.51v-4h-38v4h3.69c3.8,0,4.34.11,5.21.43a2.13,2.13,0,0,1,1.41,2c0,1.19-.65,2.17-2.49,3.8-1.08,1-3.36,2.6-4.77,3.69l-11.6,8.46V15.66h-39v4h4.77c7.16,0,8.24.65,8.24,5.53V114c0,5.42-1.08,6.18-8.24,6.18h-2.71v4h46.74v-4h-1.41c-7.16,0-8.35-.87-8.35-6.29V100.46l18.22,23.77Zm39.91-9.78v-9.87A49.47,49.47,0,0,1,654,94.17a23.9,23.9,0,0,1,2.82-6.61c1.19-1.84,2.28-2.82,3.15-2.82.22,0,.65.22.65.54s.11.33-.33,1.19a9.73,9.73,0,0,0-1.08,4.88c0,7.27,5.64,12.47,13.66,12.47,8.35,0,13.88-5.86,13.88-14.64,0-9.22-5.75-15.4-15.4-15.4-8.67,0-15.4,5.53-19.08,14.75V76H616v4h3.25c7.16,0,8.24.65,8.24,5.53v29.06c0,4.88-1.08,5.53-8.24,5.53h-2.06v4h47.5v-4h-3.14C654.35,120.09,653.16,119.33,653.16,114.45Zm109.2,9.67v-4h-2.17c-4.88,0-5.75-1.52-5.75-6.18V97.64c0-6.29-.11-8.13-.76-10.41a15.61,15.61,0,0,0-2.93-5.64c-4.12-5.21-11.71-7.81-22.23-7.81-6.18,0-13.12,1.3-20.49,3.36a31.72,31.72,0,0,1-4.34,1.08c-1.3,0-1.73-.54-1.84-2.38H698.6v16h3.58V90.7c0-3.9.76-6,2.71-7.48,2.71-2.17,8.13-3.69,13.34-3.69s8.46,1.52,9.54,4.34c.54,1.41.65,2.82.65,6.18v3.58c-4-.33-6.83-.43-10.74-.43-17,0-28.74,4.45-28.74,16.37,0,10.74,9.22,16,20.28,16,7.27,0,14.42-1.86,20.06-6v4.57Zm-33.94-17.37c0,1.19,0,2.93-.11,4.77-.11,2.28-.43,3.47-1.3,4.55a6.93,6.93,0,0,1-5.31,2.28c-4.23,0-5.75-2.49-5.75-9.11V107c0-6.83,2.49-9.43,9.22-9.43,1.41,0,1.3,0,3.25.11Zm124.16,17.37v-4h-1.73c-7.16,0-8.24-.65-8.24-5.86V95.69a53.49,53.49,0,0,0-.33-7.27,14.64,14.64,0,0,0-3.47-7.92c-3.58-3.9-9.22-6.07-16.37-6.07-8.57,0-15.94,2.82-21.8,8.46V76H764.74v4H768c7.16,0,8.24.65,8.24,5.86v28.41c0,5.2-1.08,5.86-8.24,5.86h-2.06v4h41.86v-3.6h-1.08c-3.47,0-4.66-.87-5-3-.11-1.08-.22-3.14-.22-5.31V95.36c0-6.18.33-7.7,2-9.76a9.13,9.13,0,0,1,6.94-3.14c2.71,0,4.55.87,5.31,2.71.54,1.19.87,7.16.87,13v14c0,4.66-.22,6.51-1,7.26s-2.06,1.08-4.23,1.08h-.65v3.6Zm51-18.24v-1.63h-3.69v1.19c0,6.07-.33,12.25-7.59,12.25-2.71,0-4.34-1.3-5-3.36-.76-2.28-.54-5.86-.54-9V80.51h16.59V76H886.74V57l-1.41-1.08-33.42,21v3.58h8.91V102a78.86,78.86,0,0,0,.33,9,16.1,16.1,0,0,0,3.69,9.65c3.36,3.81,8.78,5.44,16.7,5.44,10.52,0,17.35-3.05,20.39-9C903.22,114.56,903.54,111.85,903.54,105.88Z" transform="translate(-17.72 -15.66)"/>
    </g>
  </g>
</svg>
